<svg width="24" height="21" viewBox="0 0 24 21" fill="none" xmlns="http://www.w3.org/2000/svg">
<path d="M12.043 20.9445C11.8205 20.9445 11.6323 20.8641 11.4782 20.7034L3.46931 12.6409C3.38374 12.5695 3.26609 12.4534 3.11635 12.2927C2.96661 12.132 2.72917 11.8396 2.40402 11.4155C2.07887 10.9914 1.78795 10.5561 1.53125 10.1097C1.27455 9.66323 1.04567 9.12305 0.844587 8.48912C0.643508 7.85519 0.542969 7.23912 0.542969 6.6409C0.542969 4.67662 1.08631 3.1409 2.17299 2.03376C3.25967 0.926618 4.76135 0.373047 6.67801 0.373047C7.20852 0.373047 7.74972 0.469029 8.30162 0.660993C8.85352 0.852958 9.36691 1.11189 9.8418 1.43778C10.3167 1.76367 10.7253 2.06948 11.0675 2.35519C11.4098 2.6409 11.7349 2.94448 12.043 3.2659C12.351 2.94448 12.6762 2.6409 13.0184 2.35519C13.3607 2.06948 13.7693 1.76367 14.2441 1.43778C14.719 1.11189 15.2324 0.852958 15.7843 0.660993C16.3362 0.469029 16.8774 0.373047 17.4079 0.373047C19.3246 0.373047 20.8263 0.926618 21.9129 2.03376C22.9996 3.1409 23.543 4.67662 23.543 6.6409C23.543 8.61412 22.5632 10.623 20.6038 12.6677L12.6077 20.7034C12.4537 20.8641 12.2654 20.9445 12.043 20.9445Z" fill="#23B7AF"/>
</svg>
