<svg width="1197" height="891" viewBox="0 0 1197 891" fill="none" xmlns="http://www.w3.org/2000/svg">
<path d="M274.773 97.614C157.384 163.182 -6.96069 272.463 274.773 185.038C556.506 97.6141 316.258 226.322 160.916 301.604C55.4163 355.03 -104.607 461.153 99.2996 458.239L407.384 409.063L324.836 478.274C490.872 471.596 821.987 458.239 818.162 458.239C814.338 458.239 626.94 611.232 533.719 687.728L366.306 846.184C334.644 878.968 313.097 924.866 480.204 846.184C689.087 747.832 1027.44 365.351 1068.88 478.274C1102.02 568.612 1037.8 684.692 1001.55 731.44C960.118 799.437 902.114 915.031 1001.55 833.435C1125.84 731.44 1293.3 542.021 1260.5 636.73C1234.26 712.498 1407.23 374.458 1497 195.966" stroke="#24B6B0"/>
<path d="M963.715 219.58C958.11 223.39 950.783 225.801 941.769 225.969C930.637 228.265 875.133 220.172 848.115 208.468C784.284 182.439 740.398 147.052 721.297 127.359C718.616 124.599 716.36 122.194 714.564 120.326C714.405 120.198 714.314 120.026 714.149 119.897C712.873 118.553 711.822 117.215 711.021 115.782C702.78 101.959 717.151 86.6474 731.766 93.905C741.595 98.8033 740.897 109.488 740.749 111.729C741.691 107.802 752.654 76.244 785.505 79.5674C796.284 80.663 804.474 89.5318 805.731 92.8381C805.345 85.7223 814.312 77.208 826.034 82.1387C837.339 86.9164 840.087 96.3332 838.717 102.704C845.847 90.6041 866.786 78.2919 894.299 87.4285C937.392 101.716 929.658 143.403 922.166 158.77C977.153 143.909 992.418 200.131 963.715 219.58Z" fill="#F5FEFF"/>
<path d="M963.715 219.579C958.11 223.39 950.783 225.801 941.768 225.969C930.636 228.265 875.133 220.172 848.114 208.468C784.284 182.439 740.398 147.052 721.296 127.359C718.615 124.599 716.36 122.194 714.564 120.326C714.405 120.198 714.313 120.026 714.148 119.897C712.873 118.553 711.821 117.215 711.02 115.782C713.217 115.904 715.502 116.474 717.79 117.634C728.491 122.981 729.322 130.067 729.803 129.584C749.764 110.694 764.693 134.285 764.693 134.285C763.353 113.318 790.498 113.261 791.755 116.567C795.04 109.925 806.824 97.8233 826.857 103.452C841.11 107.47 849.142 125.513 847.726 131.901C854.87 119.768 867.904 113.051 883.142 119.118C920.346 133.981 915.681 167.132 908.19 182.499C947.136 171.965 966.147 197.127 963.715 219.579Z" fill="#E0FBFF"/>
<path d="M1090.53 798.968C1091.67 800.407 1091.58 802.634 1090.33 803.946C1089.07 805.256 1087.12 805.153 1085.97 803.716C1084.83 802.277 1084.92 800.05 1086.17 798.738C1087.43 797.428 1089.38 797.53 1090.53 798.968Z" fill="#FFF6D3"/>
<path d="M1090.53 798.968C1091.67 800.407 1091.58 802.634 1090.33 803.946C1089.07 805.256 1087.12 805.153 1085.97 803.716C1084.83 802.277 1084.92 800.05 1086.17 798.738C1087.43 797.428 1089.38 797.53 1090.53 798.968Z" stroke="#F55C2E" stroke-width="1.33333" stroke-miterlimit="10"/>
<path d="M1098.73 795.653C1099.88 797.092 1099.79 799.319 1098.53 800.631C1097.27 801.941 1095.32 801.838 1094.18 800.401C1093.03 798.962 1093.12 796.734 1094.38 795.423C1095.64 794.113 1097.59 794.215 1098.73 795.653Z" fill="#FFF6D3"/>
<path d="M1098.73 795.653C1099.88 797.092 1099.79 799.319 1098.53 800.631C1097.27 801.941 1095.32 801.838 1094.18 800.401C1093.03 798.962 1093.12 796.734 1094.38 795.423C1095.64 794.113 1097.59 794.215 1098.73 795.653Z" stroke="#F55C2E" stroke-width="1.33333" stroke-miterlimit="10"/>
<path d="M1090.7 789.738C1091.87 789.799 1092.76 790.926 1092.71 792.255C1092.66 793.584 1091.67 794.612 1090.51 794.551C1089.35 794.488 1088.45 793.361 1088.5 792.032C1088.55 790.703 1089.54 789.677 1090.7 789.738Z" fill="#FFF6D3"/>
<path d="M1090.7 789.738C1091.87 789.799 1092.76 790.926 1092.71 792.255C1092.66 793.584 1091.67 794.612 1090.51 794.551C1089.35 794.488 1088.45 793.361 1088.5 792.032C1088.55 790.703 1089.54 789.677 1090.7 789.738Z" stroke="#F55C2E" stroke-width="1.33333" stroke-miterlimit="10"/>
<path d="M1155.51 595.286L1147.9 597.548L1149.24 603.442L1156.85 601.181L1155.51 595.286Z" fill="#FFBD24"/>
<path d="M1153.87 593.962L1148.77 595.478L1149.15 597.175L1154.26 595.659L1153.87 593.962Z" fill="#DE9123"/>
<path d="M1215.9 631.195C1213.95 624.491 1210.97 618.281 1207.79 612.314C1203.97 605.167 1199.74 598.17 1194.24 593.078C1190.12 589.258 1185.17 586.611 1180.26 586.243C1178.62 586.119 1176.99 586.25 1175.39 586.675C1166.96 588.914 1161.02 598.661 1152.59 600.887C1144.28 603.633 1134.94 598.423 1126.63 601.155C1120.32 603.229 1115.51 609.733 1112.88 617.239C1110.25 624.745 1109.53 633.213 1109.24 641.578C1109 648.564 1109.04 655.645 1110.19 662.588C1110.99 667.452 1112.43 672.391 1115.23 675.988C1117.55 678.96 1120.66 680.798 1123.83 681.57C1127.55 682.476 1131.47 681.944 1134.68 679.704C1139.75 676.159 1142.41 669.047 1146.05 663.364C1150.24 656.821 1157.12 651.628 1163.57 649.202C1170.23 647.734 1178.46 648.439 1184.91 651.824C1189.89 654.44 1194.68 658.472 1199.86 659.521C1200.5 659.651 1201.14 659.743 1201.79 659.773C1205.55 659.946 1209.2 658.231 1212.07 655.368C1214.51 652.929 1216.44 649.591 1217.2 645.705C1218.12 641.003 1217.27 635.891 1215.9 631.195Z" fill="#ECAB12"/>
<mask id="mask0_4001_3" style="mask-type:luminance" maskUnits="userSpaceOnUse" x="1112" y="586" width="106" height="74">
<path d="M1112.26 586.198H1217.59V659.785H1112.26V586.198Z" fill="white"/>
</mask>
<g mask="url(#mask0_4001_3)">
<g opacity="0.199997">
<path d="M1215.9 631.195C1213.95 624.491 1210.97 618.281 1207.79 612.314C1203.97 605.167 1199.74 598.17 1194.24 593.078C1190.12 589.258 1185.17 586.611 1180.26 586.243C1178.62 586.119 1176.99 586.25 1175.39 586.675C1166.96 588.914 1161.02 598.661 1152.59 600.887C1144.28 603.633 1134.94 598.423 1126.63 601.155C1120.32 603.229 1115.51 609.733 1112.88 617.239C1112.66 617.87 1112.46 618.51 1112.26 619.154C1114.74 617.371 1117.48 616.069 1120.34 615.375C1132.67 612.384 1146.29 620.141 1157.75 614.155C1163.9 610.948 1168.5 604.124 1175.09 602.451C1182.99 600.446 1190.82 606.684 1195.65 614.106C1201.35 622.86 1204.54 633.998 1203.3 644.817C1202.71 649.927 1201.04 654.899 1198.53 659.178C1198.97 659.311 1199.41 659.43 1199.86 659.521C1200.5 659.651 1201.14 659.743 1201.79 659.773C1205.55 659.946 1209.2 658.231 1212.07 655.368C1214.51 652.929 1216.44 649.591 1217.2 645.705C1218.12 641.004 1217.27 635.891 1215.9 631.195Z" fill="#ECAB12"/>
</g>
</g>
<path d="M1145.93 633.12C1146.47 635.486 1145.23 637.902 1143.16 638.516C1141.09 639.132 1138.98 637.712 1138.44 635.346C1137.9 632.98 1139.14 630.564 1141.21 629.949C1143.28 629.335 1145.4 630.754 1145.93 633.12Z" fill="#006764"/>
<path d="M1146.3 632.404C1146.84 634.77 1145.6 637.185 1143.53 637.8C1141.46 638.415 1139.34 636.995 1138.81 634.63C1138.27 632.264 1139.51 629.847 1141.58 629.233C1143.65 628.618 1145.76 630.038 1146.3 632.404Z" fill="#008582"/>
<path d="M1155.36 637.078C1155.9 639.444 1154.66 641.859 1152.59 642.474C1150.52 643.088 1148.41 641.669 1147.87 639.304C1147.33 636.938 1148.57 634.521 1150.64 633.907C1152.71 633.292 1154.83 634.712 1155.36 637.078Z" fill="#BF301A"/>
<path d="M1155.73 636.361C1156.27 638.727 1155.03 641.143 1152.96 641.757C1150.89 642.372 1148.78 640.953 1148.24 638.587C1147.7 636.221 1148.94 633.805 1151.01 633.19C1153.08 632.576 1155.19 633.996 1155.73 636.361Z" fill="#F23800"/>
<path d="M1139.38 641.824C1139.92 644.19 1138.68 646.606 1136.61 647.22C1134.54 647.835 1132.42 646.416 1131.89 644.05C1131.35 641.684 1132.59 639.268 1134.66 638.653C1136.73 638.039 1138.84 639.459 1139.38 641.824Z" fill="#C1BDB4"/>
<path d="M1139.75 641.108C1140.29 643.474 1139.04 645.89 1136.97 646.504C1134.9 647.119 1132.79 645.7 1132.25 643.334C1131.72 640.968 1132.96 638.551 1135.03 637.937C1137.1 637.322 1139.21 638.742 1139.75 641.108Z" fill="#F5EDDF"/>
<path d="M1174.08 620.832C1171.69 622.733 1170.15 625.747 1169.85 629.058L1175.57 627.361L1174.08 620.832Z" fill="#F7AF2A"/>
<path d="M1185.49 639.561C1187.88 637.659 1189.43 634.645 1189.72 631.335L1184.01 633.032L1185.49 639.561Z" fill="#F7AF2A"/>
<path d="M1171.6 636.718C1173.26 639.447 1175.9 641.218 1178.79 641.551L1177.31 635.022L1171.6 636.718Z" fill="#F7AF2A"/>
<path d="M1187.98 623.675C1186.31 620.946 1183.68 619.175 1180.78 618.842L1182.27 625.371L1187.98 623.675Z" fill="#F7AF2A"/>
<path d="M1177.31 635.021L1178.79 641.551C1179.94 641.683 1181.12 641.602 1182.3 641.252C1183.48 640.901 1184.55 640.314 1185.49 639.561L1184.01 633.032L1177.31 635.021Z" fill="#F7AF2A"/>
<path d="M1182.27 625.371L1180.78 618.842C1179.64 618.71 1178.45 618.791 1177.27 619.142C1176.09 619.492 1175.03 620.079 1174.08 620.832L1175.57 627.361L1182.27 625.371Z" fill="#F7AF2A"/>
<path d="M1187.98 623.675L1182.27 625.371L1184.01 633.031L1189.72 631.336C1189.84 630.025 1189.76 628.673 1189.46 627.325C1189.15 625.976 1188.64 624.756 1187.98 623.675Z" fill="#F7AF2A"/>
<path d="M1175.57 627.361L1169.85 629.057C1169.74 630.368 1169.81 631.719 1170.12 633.068C1170.42 634.417 1170.94 635.638 1171.59 636.718L1177.31 635.022L1175.57 627.361Z" fill="#F7AF2A"/>
<path d="M1177.31 635.021L1184.01 633.032L1182.27 625.371L1175.57 627.361L1177.31 635.021Z" fill="#F7AF2A"/>
<path d="M1174.53 619.956C1172.14 621.857 1170.6 624.871 1170.3 628.181L1176.02 626.485L1174.53 619.956Z" fill="#F5EDDF"/>
<path d="M1185.94 638.685C1188.33 636.783 1189.88 633.769 1190.17 630.459L1184.46 632.156L1185.94 638.685Z" fill="#F5EDDF"/>
<path d="M1172.05 635.841C1173.71 638.571 1176.35 640.342 1179.24 640.675L1177.76 634.146L1172.05 635.841Z" fill="#F5EDDF"/>
<path d="M1188.43 622.799C1186.77 620.069 1184.13 618.299 1181.23 617.966L1182.72 624.495L1188.43 622.799Z" fill="#F5EDDF"/>
<path d="M1177.76 634.145L1179.24 640.674C1180.39 640.806 1181.57 640.726 1182.75 640.376C1183.93 640.024 1185 639.437 1185.94 638.684L1184.46 632.155L1177.76 634.145Z" fill="#C1BDB4"/>
<path d="M1182.72 624.495L1181.23 617.966C1180.09 617.834 1178.91 617.914 1177.73 618.265C1176.54 618.616 1175.48 619.203 1174.53 619.956L1176.02 626.485L1182.72 624.495Z" fill="#C1BDB4"/>
<path d="M1188.43 622.799L1182.72 624.495L1184.46 632.155L1190.17 630.459C1190.29 629.149 1190.21 627.797 1189.91 626.448C1189.6 625.1 1189.09 623.879 1188.43 622.799Z" fill="#C1BDB4"/>
<path d="M1176.02 626.485L1170.3 628.181C1170.19 629.491 1170.26 630.843 1170.57 632.192C1170.87 633.541 1171.39 634.761 1172.04 635.841L1177.76 634.145L1176.02 626.485Z" fill="#C1BDB4"/>
<path d="M1177.76 634.145L1184.46 632.155L1182.72 624.495L1176.02 626.485L1177.76 634.145Z" fill="#C1BDB4"/>
<path d="M1161.17 617.642L1134.79 625.474C1133.27 625.926 1131.72 624.884 1131.33 623.148L1130.44 619.237C1130.04 617.501 1130.96 615.729 1132.47 615.278L1158.85 607.445C1160.37 606.994 1161.92 608.036 1162.31 609.771L1163.2 613.683C1163.6 615.419 1162.68 617.191 1161.17 617.642Z" fill="#F7AF2A"/>
<path d="M1172.03 609.277C1172.57 611.642 1171.33 614.058 1169.26 614.673C1167.19 615.287 1165.07 613.868 1164.54 611.502C1164 609.137 1165.24 606.72 1167.31 606.106C1169.38 605.491 1171.49 606.911 1172.03 609.277Z" fill="#DE9123"/>
<path d="M1172.4 608.56C1172.94 610.926 1171.7 613.342 1169.63 613.956C1167.56 614.571 1165.44 613.152 1164.91 610.786C1164.37 608.42 1165.61 606.004 1167.68 605.389C1169.75 604.775 1171.86 606.194 1172.4 608.56Z" fill="#FFBD24"/>
<path d="M1181.69 606.408C1182.23 608.774 1180.99 611.189 1178.92 611.804C1176.85 612.419 1174.74 610.999 1174.2 608.634C1173.66 606.268 1174.9 603.851 1176.97 603.237C1179.04 602.622 1181.15 604.042 1181.69 606.408Z" fill="#006764"/>
<path d="M1182.06 605.691C1182.6 608.057 1181.36 610.473 1179.29 611.087C1177.22 611.702 1175.1 610.283 1174.57 607.917C1174.03 605.551 1175.27 603.135 1177.34 602.52C1179.41 601.906 1181.52 603.325 1182.06 605.691Z" fill="#008582"/>
<path d="M1161.67 616.319L1133.76 624.608L1131.94 616.609L1159.85 608.32L1161.67 616.319Z" fill="#F5EDDF"/>
<path d="M1125.64 575.102C1126.22 575.821 1126.17 576.933 1125.54 577.589C1124.91 578.243 1123.94 578.191 1123.37 577.474C1122.8 576.755 1122.84 575.642 1123.47 574.988C1124.1 574.333 1125.07 574.384 1125.64 575.102Z" fill="#FFF6D3"/>
<path d="M1125.64 575.102C1126.22 575.821 1126.17 576.933 1125.54 577.589C1124.91 578.243 1123.94 578.191 1123.37 577.474C1122.8 576.755 1122.84 575.642 1123.47 574.988C1124.1 574.333 1125.07 574.384 1125.64 575.102Z" stroke="#ECAB12" stroke-width="1.33333" stroke-miterlimit="10"/>
<path d="M1129.74 573.446C1130.31 574.165 1130.27 575.277 1129.64 575.933C1129.01 576.587 1128.04 576.535 1127.47 575.818C1126.89 575.099 1126.94 573.986 1127.57 573.331C1128.2 572.677 1129.17 572.728 1129.74 573.446Z" fill="#FFF6D3"/>
<path d="M1129.74 573.446C1130.31 574.165 1130.27 575.277 1129.64 575.933C1129.01 576.587 1128.04 576.535 1127.47 575.818C1126.89 575.099 1126.94 573.986 1127.57 573.331C1128.2 572.677 1129.17 572.728 1129.74 573.446Z" stroke="#ECAB12" stroke-width="1.33333" stroke-miterlimit="10"/>
<path d="M1125.73 570.492C1126.31 570.522 1126.76 571.085 1126.73 571.749C1126.71 572.413 1126.21 572.926 1125.63 572.895C1125.05 572.865 1124.6 572.302 1124.63 571.638C1124.66 570.974 1125.15 570.461 1125.73 570.492Z" fill="#FFF6D3"/>
<path d="M1125.73 570.492C1126.31 570.522 1126.76 571.085 1126.73 571.749C1126.71 572.413 1126.21 572.926 1125.63 572.895C1125.05 572.865 1124.6 572.302 1124.63 571.638C1124.66 570.974 1125.15 570.461 1125.73 570.492Z" stroke="#ECAB12" stroke-width="1.33333" stroke-miterlimit="10"/>
<path d="M258.071 744.182L261.03 791.692C261.138 793.424 263.249 794.206 264.459 792.963L298.128 758.379L269.101 796.537C268.036 797.937 269.166 799.931 270.914 799.736L319.443 794.327L271.999 805.394C270.278 805.795 269.885 808.067 271.371 809.023L312.04 835.206L268.284 813.936C266.714 813.172 264.988 814.647 265.497 816.317L279.385 861.888L259.898 818.185C259.193 816.604 256.949 816.604 256.244 818.185L236.757 861.888L250.645 816.317C251.155 814.647 249.428 813.172 247.858 813.936L204.102 835.206L244.772 809.023C246.257 808.067 245.864 805.795 244.143 805.394L196.7 794.327L245.228 799.736C246.976 799.931 248.106 797.937 247.041 796.537L218.014 758.379L251.683 792.963C252.893 794.206 255.004 793.424 255.112 791.692L258.071 744.182Z" fill="#E62D5C"/>
</svg>
