<?xml version="1.0" standalone="no"?>
<!DOCTYPE svg PUBLIC "-//W3C//DTD SVG 20010904//EN"
 "http://www.w3.org/TR/2001/REC-SVG-20010904/DTD/svg10.dtd">
<svg version="1.0" xmlns="http://www.w3.org/2000/svg"
 width="512.000000pt" height="512.000000pt" viewBox="0 0 512.000000 512.000000"
 preserveAspectRatio="xMidYMid meet">

<g transform="translate(0.000000,512.000000) scale(0.100000,-0.100000)"
fill="#000000" stroke="none">
<path d="M2330 4955 c-316 -54 -571 -184 -799 -408 -509 -501 -580 -1304 -164
-1884 70 -99 116 -150 217 -241 444 -402 1083 -491 1618 -227 332 165 593 447
723 783 123 320 131 678 21 1001 -123 362 -391 669 -732 839 -143 71 -290 117
-451 141 -95 15 -339 12 -433 -4z"/>
<path d="M1244 2244 c-428 -256 -771 -627 -993 -1075 -133 -268 -242 -634
-245 -826 -1 -80 10 -102 78 -157 l38 -31 2438 0 2438 0 38 31 c68 55 79 77
78 157 -2 123 -58 362 -136 576 -47 130 -153 348 -227 466 -208 336 -525 649
-864 852 -56 34 -110 65 -119 68 -11 4 -39 -15 -89 -60 -88 -79 -262 -197
-374 -253 -97 -48 -291 -115 -395 -136 -374 -75 -739 -31 -1078 129 -117 56
-295 174 -390 259 -40 36 -76 66 -80 66 -4 0 -57 -30 -118 -66z"/>
</g>
</svg>
